<svg width="142" height="113" viewBox="0 0 142 113" fill="none" xmlns="http://www.w3.org/2000/svg">
<path d="M71.5372 43.4997L131.199 74.0766C132.65 74.8199 132.65 76.893 131.199 77.6363L71.5372 108.213C70.9645 108.507 70.2855 108.507 69.7128 108.213L10.0505 77.6363C8.60012 76.893 8.60012 74.8199 10.0505 74.0766L69.7128 43.4997C70.2855 43.2062 70.9645 43.2062 71.5372 43.4997Z" stroke="white" stroke-width="6"/>
<path d="M71.5372 25.8434L131.199 56.4203C132.65 57.1637 132.65 59.2367 131.199 59.9801L71.5372 90.557C70.9645 90.8505 70.2855 90.8505 69.7128 90.557L10.0505 59.9801C8.60012 59.2367 8.60012 57.1637 10.0505 56.4203L69.7128 25.8434C70.2855 25.5499 70.9645 25.5499 71.5372 25.8434Z" stroke="white" stroke-width="6"/>
<path d="M71.5372 8.18717L131.199 38.7641C132.65 39.5074 132.65 41.5805 131.199 42.3238L71.5372 72.9007C70.9645 73.1942 70.2855 73.1942 69.7128 72.9007L10.0505 42.3238C8.60012 41.5805 8.60012 39.5074 10.0505 38.7641L69.7128 8.18717C70.2855 7.89365 70.9645 7.89365 71.5372 8.18717Z" stroke="white" stroke-width="6"/>
<rect x="67.3652" width="8.69231" height="113" fill="black"/>
</svg>
