<svg width="215" height="51" viewBox="0 0 215 51" fill="none" xmlns="http://www.w3.org/2000/svg">
<mask id="mask0" mask-type="alpha" maskUnits="userSpaceOnUse" x="0" y="2" width="53" height="49">
<rect y="2" width="53" height="49" fill="#211E32"/>
</mask>
<g mask="url(#mask0)">
<path d="M28.0963 12.6296L49.6336 23.6675C52.1718 24.9683 52.1718 28.5961 49.6336 29.897L28.0963 40.9348C27.0941 41.4485 25.9059 41.4485 24.9037 40.9348L3.36641 29.897C0.828166 28.5961 0.828166 24.9683 3.36641 23.6675L24.9037 12.6296C25.9059 12.116 27.0941 12.116 28.0963 12.6296Z" stroke="white" stroke-width="3"/>
<path d="M28.0963 20.7546L49.6336 31.7925C52.1718 33.0933 52.1718 36.7211 49.6336 38.022L28.0963 49.0598C27.0941 49.5735 25.9059 49.5735 24.9037 49.0598L3.36641 38.022C0.828166 36.7211 0.828166 33.0933 3.36641 31.7925L24.9037 20.7546C25.9059 20.241 27.0941 20.241 28.0963 20.7546Z" stroke="white" stroke-width="3"/>
<path d="M28.0963 4.50461L49.6336 15.5425C52.1718 16.8433 52.1718 20.4711 49.6336 21.772L28.0963 32.8098C27.0941 33.3235 25.9059 33.3235 24.9037 32.8098L3.36641 21.772C0.828166 20.4711 0.828166 16.8433 3.36641 15.5425L24.9037 4.50461C25.9059 3.99096 27.0941 3.99096 28.0963 4.50461Z" stroke="white" stroke-width="3"/>
<rect x="24" y="2" width="4" height="49" fill="#211E32"/>
</g>
<path d="M68.248 37H66.4902V21.1504H68.248V37ZM66.1826 16.5654C66.1826 16.2334 66.29 15.9551 66.5049 15.7305C66.7197 15.4961 67.0127 15.3789 67.3838 15.3789C67.7549 15.3789 68.0479 15.4961 68.2627 15.7305C68.4873 15.9551 68.5996 16.2334 68.5996 16.5654C68.5996 16.8975 68.4873 17.1758 68.2627 17.4004C68.0479 17.625 67.7549 17.7373 67.3838 17.7373C67.0127 17.7373 66.7197 17.625 66.5049 17.4004C66.29 17.1758 66.1826 16.8975 66.1826 16.5654ZM74.6934 21.1504L74.752 23.8604C75.3477 22.8838 76.0898 22.1416 76.9785 21.6338C77.8672 21.1162 78.8486 20.8574 79.9229 20.8574C81.6221 20.8574 82.8867 21.3359 83.7168 22.293C84.5469 23.25 84.9668 24.6855 84.9766 26.5996V37H83.2334V26.585C83.2236 25.1689 82.9209 24.1143 82.3252 23.4209C81.7393 22.7275 80.7969 22.3809 79.498 22.3809C78.4141 22.3809 77.4521 22.7227 76.6123 23.4062C75.7822 24.0801 75.167 24.9932 74.7666 26.1455V37H73.0234V21.1504H74.6934ZM99.0098 32.9717C99.0098 32.1025 98.6582 31.4043 97.9551 30.877C97.2617 30.3496 96.2119 29.9395 94.8057 29.6465C93.3994 29.3438 92.3057 29.002 91.5244 28.6211C90.7529 28.2305 90.1768 27.7568 89.7959 27.2002C89.4248 26.6436 89.2393 25.9697 89.2393 25.1787C89.2393 23.9287 89.7617 22.8984 90.8066 22.0879C91.8516 21.2676 93.1895 20.8574 94.8203 20.8574C96.5879 20.8574 98.0039 21.2969 99.0684 22.1758C100.143 23.0449 100.68 24.1826 100.68 25.5889H98.9219C98.9219 24.6611 98.5312 23.8896 97.75 23.2744C96.9785 22.6592 96.002 22.3516 94.8203 22.3516C93.668 22.3516 92.7402 22.6104 92.0371 23.1279C91.3438 23.6357 90.9971 24.2998 90.9971 25.1201C90.9971 25.9111 91.2852 26.5264 91.8613 26.9658C92.4473 27.3955 93.5068 27.791 95.04 28.1523C96.583 28.5137 97.7354 28.8994 98.4971 29.3096C99.2686 29.7197 99.8398 30.2129 100.211 30.7891C100.582 31.3652 100.768 32.0635 100.768 32.8838C100.768 34.2217 100.226 35.291 99.1416 36.0918C98.0674 36.8926 96.6611 37.293 94.9229 37.293C93.0771 37.293 91.5781 36.8486 90.4258 35.96C89.2832 35.0615 88.7119 33.9287 88.7119 32.5615H90.4697C90.5381 33.5869 90.9678 34.3877 91.7588 34.9639C92.5596 35.5303 93.6143 35.8135 94.9229 35.8135C96.1436 35.8135 97.1299 35.5449 97.8818 35.0078C98.6338 34.4707 99.0098 33.792 99.0098 32.9717ZM107.447 17.0928V21.1504H110.729V22.5859H107.447V33.1475C107.447 34.0264 107.604 34.6807 107.916 35.1104C108.238 35.54 108.771 35.7549 109.513 35.7549C109.806 35.7549 110.279 35.7061 110.934 35.6084L111.007 37.0439C110.548 37.21 109.923 37.293 109.132 37.293C107.931 37.293 107.057 36.9463 106.51 36.2529C105.963 35.5498 105.689 34.5195 105.689 33.1621V22.5859H102.774V21.1504H105.689V17.0928H107.447ZM124.366 37C124.19 36.502 124.078 35.7646 124.029 34.7881C123.414 35.5889 122.628 36.209 121.671 36.6484C120.724 37.0781 119.718 37.293 118.653 37.293C117.13 37.293 115.895 36.8682 114.947 36.0186C114.01 35.1689 113.541 34.0947 113.541 32.7959C113.541 31.2529 114.181 30.0322 115.46 29.1338C116.749 28.2354 118.541 27.7861 120.836 27.7861H124.015V25.9844C124.015 24.8516 123.663 23.9629 122.96 23.3184C122.267 22.6641 121.251 22.3369 119.913 22.3369C118.692 22.3369 117.682 22.6494 116.881 23.2744C116.08 23.8994 115.68 24.6514 115.68 25.5303L113.922 25.5156C113.922 24.2559 114.508 23.167 115.68 22.249C116.852 21.3213 118.292 20.8574 120.001 20.8574C121.769 20.8574 123.16 21.3018 124.176 22.1904C125.201 23.0693 125.729 24.2998 125.758 25.8818V33.3818C125.758 34.915 125.919 36.0625 126.241 36.8242V37H124.366ZM118.858 35.7402C120.03 35.7402 121.075 35.457 121.993 34.8906C122.921 34.3242 123.595 33.5674 124.015 32.6201V29.1338H120.88C119.132 29.1533 117.765 29.4756 116.778 30.1006C115.792 30.7158 115.299 31.5654 115.299 32.6494C115.299 33.5381 115.626 34.2754 116.28 34.8613C116.944 35.4473 117.804 35.7402 118.858 35.7402ZM142.926 31.7559C142.926 30.5742 142.511 29.6416 141.681 28.958C140.851 28.2646 139.332 27.6104 137.125 26.9951C134.918 26.3701 133.307 25.6914 132.291 24.959C130.846 23.9238 130.123 22.5664 130.123 20.8867C130.123 19.2559 130.792 17.9326 132.13 16.917C133.478 15.8916 135.196 15.3789 137.286 15.3789C138.702 15.3789 139.967 15.6523 141.08 16.1992C142.203 16.7461 143.072 17.5078 143.688 18.4844C144.303 19.4609 144.61 20.5498 144.61 21.751H142.794C142.794 20.2959 142.296 19.1289 141.3 18.25C140.304 17.3613 138.966 16.917 137.286 16.917C135.655 16.917 134.356 17.2832 133.39 18.0156C132.423 18.7383 131.939 19.6855 131.939 20.8574C131.939 21.9414 132.374 22.8252 133.243 23.5088C134.112 24.1924 135.504 24.7979 137.418 25.3252C139.332 25.8428 140.782 26.3848 141.769 26.9512C142.755 27.5078 143.497 28.1768 143.995 28.958C144.493 29.7393 144.742 30.6621 144.742 31.7266C144.742 33.4062 144.068 34.7539 142.721 35.7695C141.383 36.7852 139.615 37.293 137.418 37.293C135.914 37.293 134.532 37.0244 133.272 36.4873C132.022 35.9502 131.07 35.1982 130.416 34.2314C129.771 33.2646 129.449 32.1562 129.449 30.9062H131.251C131.251 32.4102 131.812 33.5967 132.936 34.4658C134.059 35.335 135.553 35.7695 137.418 35.7695C139.078 35.7695 140.411 35.4033 141.417 34.6709C142.423 33.9385 142.926 32.9668 142.926 31.7559ZM150.953 17.0928V21.1504H154.234V22.5859H150.953V33.1475C150.953 34.0264 151.109 34.6807 151.422 35.1104C151.744 35.54 152.276 35.7549 153.019 35.7549C153.312 35.7549 153.785 35.7061 154.439 35.6084L154.513 37.0439C154.054 37.21 153.429 37.293 152.638 37.293C151.437 37.293 150.562 36.9463 150.016 36.2529C149.469 35.5498 149.195 34.5195 149.195 33.1621V22.5859H146.28V21.1504H149.195V17.0928H150.953ZM167.872 37C167.696 36.502 167.584 35.7646 167.535 34.7881C166.92 35.5889 166.134 36.209 165.177 36.6484C164.229 37.0781 163.224 37.293 162.159 37.293C160.636 37.293 159.4 36.8682 158.453 36.0186C157.516 35.1689 157.047 34.0947 157.047 32.7959C157.047 31.2529 157.687 30.0322 158.966 29.1338C160.255 28.2354 162.047 27.7861 164.342 27.7861H167.521V25.9844C167.521 24.8516 167.169 23.9629 166.466 23.3184C165.772 22.6641 164.757 22.3369 163.419 22.3369C162.198 22.3369 161.188 22.6494 160.387 23.2744C159.586 23.8994 159.186 24.6514 159.186 25.5303L157.428 25.5156C157.428 24.2559 158.014 23.167 159.186 22.249C160.357 21.3213 161.798 20.8574 163.507 20.8574C165.274 20.8574 166.666 21.3018 167.682 22.1904C168.707 23.0693 169.234 24.2998 169.264 25.8818V33.3818C169.264 34.915 169.425 36.0625 169.747 36.8242V37H167.872ZM162.364 35.7402C163.536 35.7402 164.581 35.457 165.499 34.8906C166.427 34.3242 167.101 33.5674 167.521 32.6201V29.1338H164.386C162.638 29.1533 161.271 29.4756 160.284 30.1006C159.298 30.7158 158.805 31.5654 158.805 32.6494C158.805 33.5381 159.132 34.2754 159.786 34.8613C160.45 35.4473 161.31 35.7402 162.364 35.7402ZM179.811 35.8135C181.031 35.8135 182.052 35.4717 182.872 34.7881C183.702 34.0947 184.151 33.2012 184.22 32.1074H185.904C185.855 33.0742 185.553 33.958 184.996 34.7588C184.439 35.5498 183.697 36.1699 182.77 36.6191C181.852 37.0684 180.865 37.293 179.811 37.293C177.73 37.293 176.08 36.5703 174.859 35.125C173.648 33.6797 173.043 31.7363 173.043 29.2949V28.7676C173.043 27.2051 173.316 25.8232 173.863 24.6221C174.41 23.4209 175.191 22.4932 176.207 21.8389C177.232 21.1846 178.429 20.8574 179.796 20.8574C181.534 20.8574 182.965 21.375 184.088 22.4102C185.221 23.4453 185.826 24.8076 185.904 26.4971H184.22C184.142 25.2568 183.692 24.2559 182.872 23.4941C182.062 22.7324 181.036 22.3516 179.796 22.3516C178.214 22.3516 176.983 22.9229 176.104 24.0654C175.235 25.208 174.801 26.8096 174.801 28.8701V29.3828C174.801 31.4043 175.235 32.9814 176.104 34.1143C176.983 35.2471 178.219 35.8135 179.811 35.8135ZM193.185 29.0166L191.178 30.9502V37H189.42V14.5H191.178V28.8994L192.833 27.1123L198.897 21.1504H201.109L194.386 27.8301L201.695 37H199.601L193.185 29.0166Z" fill="white"/>
</svg>
