<svg width="48" height="44" viewBox="0 0 48 44" fill="none" xmlns="http://www.w3.org/2000/svg">
<mask id="mask0" mask-type="alpha" maskUnits="userSpaceOnUse" x="0" y="0" width="48" height="44">
<rect x="0.408203" width="47.5918" height="44" fill="#211E32"/>
</mask>
<g mask="url(#mask0)">
<path d="M25.8005 9.80051L44.0214 19.1387C46.5597 20.4396 46.5597 24.0674 44.0214 25.3683L25.8005 34.7065C24.7983 35.2202 23.6101 35.2202 22.6079 34.7065L4.38692 25.3683C1.84868 24.0674 1.84868 20.4396 4.38692 19.1387L22.6079 9.80051C23.6101 9.28686 24.7983 9.28686 25.8005 9.80051Z" stroke="white" stroke-width="3"/>
<path d="M25.8005 17.0964L44.0214 26.4346C46.5597 27.7355 46.5597 31.3633 44.0214 32.6642L25.8005 42.0024C24.7983 42.5161 23.6101 42.5161 22.6079 42.0024L4.38692 32.6642C1.84868 31.3633 1.84868 27.7355 4.38692 26.4346L22.6079 17.0964C23.6101 16.5828 24.7983 16.5828 25.8005 17.0964Z" stroke="white" stroke-width="3"/>
<path d="M25.8005 2.50461L44.0214 11.8428C46.5597 13.1437 46.5597 16.7715 44.0214 18.0724L25.8005 27.4106C24.7983 27.9243 23.6101 27.9243 22.6079 27.4106L4.38692 18.0724C1.84868 16.7715 1.84868 13.1437 4.38692 11.8428L22.6079 2.50461C23.6101 1.99096 24.7983 1.99096 25.8005 2.50461Z" stroke="white" stroke-width="3"/>
<rect x="21.959" width="3.59184" height="44" fill="#211E32"/>
<rect x="21.959" width="3.59184" height="44" fill="black"/>
</g>
</svg>
