<svg width="190" height="44" viewBox="0 0 190 44" fill="none" xmlns="http://www.w3.org/2000/svg">
<mask id="mask0" mask-type="alpha" maskUnits="userSpaceOnUse" x="0" y="0" width="48" height="44">
<rect x="0.408203" width="47.5918" height="44" fill="#211E32"/>
</mask>
<g mask="url(#mask0)">
<path d="M25.8005 9.80051L44.0214 19.1387C46.5597 20.4396 46.5597 24.0674 44.0214 25.3683L25.8005 34.7065C24.7983 35.2202 23.6101 35.2202 22.6079 34.7065L4.38692 25.3683C1.84868 24.0674 1.84868 20.4396 4.38692 19.1387L22.6079 9.80051C23.6101 9.28686 24.7983 9.28686 25.8005 9.80051Z" stroke="white" stroke-width="3"/>
<path d="M25.8005 17.0964L44.0214 26.4346C46.5597 27.7355 46.5597 31.3633 44.0214 32.6642L25.8005 42.0024C24.7983 42.5161 23.6101 42.5161 22.6079 42.0024L4.38692 32.6642C1.84868 31.3633 1.84868 27.7355 4.38692 26.4346L22.6079 17.0964C23.6101 16.5828 24.7983 16.5828 25.8005 17.0964Z" stroke="white" stroke-width="3"/>
<path d="M25.8005 2.50461L44.0214 11.8428C46.5597 13.1437 46.5597 16.7715 44.0214 18.0724L25.8005 27.4106C24.7983 27.9243 23.6101 27.9243 22.6079 27.4106L4.38692 18.0724C1.84868 16.7715 1.84868 13.1437 4.38692 11.8428L22.6079 2.50461C23.6101 1.99096 24.7983 1.99096 25.8005 2.50461Z" stroke="white" stroke-width="3"/>
<rect x="21.959" width="3.59184" height="44" fill="#211E32"/>
</g>
<path d="M62.9648 30H61.3242V15.207H62.9648V30ZM61.0371 10.9277C61.0371 10.6178 61.1374 10.3581 61.3379 10.1484C61.5384 9.92969 61.8118 9.82031 62.1582 9.82031C62.5046 9.82031 62.778 9.92969 62.9785 10.1484C63.1882 10.3581 63.293 10.6178 63.293 10.9277C63.293 11.2376 63.1882 11.4974 62.9785 11.707C62.778 11.9167 62.5046 12.0215 62.1582 12.0215C61.8118 12.0215 61.5384 11.9167 61.3379 11.707C61.1374 11.4974 61.0371 11.2376 61.0371 10.9277ZM68.9805 15.207L69.0352 17.7363C69.5911 16.8249 70.2839 16.1322 71.1133 15.6582C71.9427 15.1751 72.8587 14.9336 73.8613 14.9336C75.4473 14.9336 76.6276 15.3802 77.4023 16.2734C78.1771 17.1667 78.569 18.5065 78.5781 20.293V30H76.9512V20.2793C76.9421 18.9577 76.6595 17.9733 76.1035 17.3262C75.5566 16.679 74.6771 16.3555 73.4648 16.3555C72.4531 16.3555 71.5553 16.6745 70.7715 17.3125C69.9967 17.9414 69.4225 18.7936 69.0488 19.8691V30H67.4219V15.207H68.9805ZM91.6758 26.2402C91.6758 25.429 91.3477 24.7773 90.6914 24.2852C90.0443 23.793 89.0645 23.4102 87.752 23.1367C86.4395 22.8542 85.4186 22.5352 84.6895 22.1797C83.9694 21.8151 83.4316 21.373 83.0762 20.8535C82.7298 20.334 82.5566 19.7051 82.5566 18.9668C82.5566 17.8001 83.0443 16.8385 84.0195 16.082C84.9948 15.3164 86.2435 14.9336 87.7656 14.9336C89.4154 14.9336 90.737 15.3438 91.7305 16.1641C92.7331 16.9753 93.2344 18.0371 93.2344 19.3496H91.5938C91.5938 18.4837 91.2292 17.7637 90.5 17.1895C89.7799 16.6152 88.8685 16.3281 87.7656 16.3281C86.6901 16.3281 85.8242 16.5697 85.168 17.0527C84.5208 17.5267 84.1973 18.1465 84.1973 18.9121C84.1973 19.6504 84.4661 20.2246 85.0039 20.6348C85.5508 21.0358 86.5397 21.4049 87.9707 21.7422C89.4108 22.0794 90.4863 22.4395 91.1973 22.8223C91.9173 23.2051 92.4505 23.6654 92.7969 24.2031C93.1432 24.7409 93.3164 25.3926 93.3164 26.1582C93.3164 27.4069 92.8105 28.4049 91.7988 29.1523C90.7962 29.8997 89.4837 30.2734 87.8613 30.2734C86.1387 30.2734 84.7396 29.8587 83.6641 29.0293C82.5977 28.1908 82.0645 27.1335 82.0645 25.8574H83.7051C83.7689 26.8145 84.1699 27.5618 84.9082 28.0996C85.6556 28.6283 86.64 28.8926 87.8613 28.8926C89.0007 28.8926 89.9212 28.6419 90.623 28.1406C91.3249 27.6393 91.6758 27.0059 91.6758 26.2402ZM99.5508 11.4199V15.207H102.613V16.5469H99.5508V26.4043C99.5508 27.2246 99.6966 27.8353 99.9883 28.2363C100.289 28.6374 100.786 28.8379 101.479 28.8379C101.752 28.8379 102.194 28.7923 102.805 28.7012L102.873 30.041C102.445 30.196 101.861 30.2734 101.123 30.2734C100.002 30.2734 99.1862 29.9499 98.6758 29.3027C98.1654 28.6465 97.9102 27.6849 97.9102 26.418V16.5469H95.1895V15.207H97.9102V11.4199H99.5508ZM115.342 30C115.178 29.5352 115.073 28.847 115.027 27.9355C114.453 28.6829 113.719 29.2617 112.826 29.6719C111.942 30.0729 111.003 30.2734 110.01 30.2734C108.588 30.2734 107.435 29.877 106.551 29.084C105.676 28.291 105.238 27.2884 105.238 26.0762C105.238 24.6361 105.835 23.4967 107.029 22.6582C108.232 21.8197 109.905 21.4004 112.047 21.4004H115.014V19.7188C115.014 18.6615 114.686 17.832 114.029 17.2305C113.382 16.6198 112.434 16.3145 111.186 16.3145C110.046 16.3145 109.103 16.6061 108.355 17.1895C107.608 17.7728 107.234 18.4746 107.234 19.2949L105.594 19.2812C105.594 18.1055 106.141 17.0892 107.234 16.2324C108.328 15.3665 109.673 14.9336 111.268 14.9336C112.917 14.9336 114.216 15.3483 115.164 16.1777C116.121 16.998 116.613 18.1465 116.641 19.623V26.623C116.641 28.054 116.791 29.125 117.092 29.8359V30H115.342ZM110.201 28.8242C111.295 28.8242 112.27 28.5599 113.127 28.0312C113.993 27.5026 114.622 26.7962 115.014 25.9121V22.6582H112.088C110.456 22.6764 109.18 22.9772 108.26 23.5605C107.339 24.1348 106.879 24.9277 106.879 25.9395C106.879 26.7689 107.184 27.457 107.795 28.0039C108.415 28.5508 109.217 28.8242 110.201 28.8242ZM132.664 25.1055C132.664 24.0026 132.277 23.1322 131.502 22.4941C130.727 21.847 129.31 21.2363 127.25 20.6621C125.19 20.0788 123.686 19.4453 122.738 18.7617C121.389 17.7956 120.715 16.5286 120.715 14.9609C120.715 13.4388 121.339 12.2038 122.588 11.2559C123.846 10.2988 125.45 9.82031 127.4 9.82031C128.722 9.82031 129.902 10.0755 130.941 10.5859C131.99 11.0964 132.801 11.8073 133.375 12.7188C133.949 13.6302 134.236 14.6465 134.236 15.7676H132.541C132.541 14.4095 132.076 13.3203 131.146 12.5C130.217 11.6706 128.968 11.2559 127.4 11.2559C125.878 11.2559 124.666 11.5977 123.764 12.2812C122.861 12.9557 122.41 13.8398 122.41 14.9336C122.41 15.9453 122.816 16.7702 123.627 17.4082C124.438 18.0462 125.737 18.6113 127.523 19.1035C129.31 19.5866 130.663 20.0924 131.584 20.6211C132.505 21.1406 133.197 21.765 133.662 22.4941C134.127 23.2233 134.359 24.0846 134.359 25.0781C134.359 26.6458 133.73 27.9036 132.473 28.8516C131.224 29.7995 129.574 30.2734 127.523 30.2734C126.12 30.2734 124.83 30.0228 123.654 29.5215C122.488 29.0202 121.599 28.3184 120.988 27.416C120.387 26.5137 120.086 25.4792 120.086 24.3125H121.768C121.768 25.7161 122.292 26.8236 123.34 27.6348C124.388 28.446 125.783 28.8516 127.523 28.8516C129.073 28.8516 130.317 28.5098 131.256 27.8262C132.195 27.1426 132.664 26.2357 132.664 25.1055ZM140.156 11.4199V15.207H143.219V16.5469H140.156V26.4043C140.156 27.2246 140.302 27.8353 140.594 28.2363C140.895 28.6374 141.391 28.8379 142.084 28.8379C142.357 28.8379 142.799 28.7923 143.41 28.7012L143.479 30.041C143.05 30.196 142.467 30.2734 141.729 30.2734C140.607 30.2734 139.792 29.9499 139.281 29.3027C138.771 28.6465 138.516 27.6849 138.516 26.418V16.5469H135.795V15.207H138.516V11.4199H140.156ZM155.947 30C155.783 29.5352 155.678 28.847 155.633 27.9355C155.059 28.6829 154.325 29.2617 153.432 29.6719C152.548 30.0729 151.609 30.2734 150.615 30.2734C149.193 30.2734 148.04 29.877 147.156 29.084C146.281 28.291 145.844 27.2884 145.844 26.0762C145.844 24.6361 146.441 23.4967 147.635 22.6582C148.838 21.8197 150.51 21.4004 152.652 21.4004H155.619V19.7188C155.619 18.6615 155.291 17.832 154.635 17.2305C153.988 16.6198 153.04 16.3145 151.791 16.3145C150.652 16.3145 149.708 16.6061 148.961 17.1895C148.214 17.7728 147.84 18.4746 147.84 19.2949L146.199 19.2812C146.199 18.1055 146.746 17.0892 147.84 16.2324C148.934 15.3665 150.278 14.9336 151.873 14.9336C153.523 14.9336 154.822 15.3483 155.77 16.1777C156.727 16.998 157.219 18.1465 157.246 19.623V26.623C157.246 28.054 157.396 29.125 157.697 29.8359V30H155.947ZM150.807 28.8242C151.9 28.8242 152.876 28.5599 153.732 28.0312C154.598 27.5026 155.227 26.7962 155.619 25.9121V22.6582H152.693C151.062 22.6764 149.786 22.9772 148.865 23.5605C147.945 24.1348 147.484 24.9277 147.484 25.9395C147.484 26.7689 147.79 27.457 148.4 28.0039C149.02 28.5508 149.822 28.8242 150.807 28.8242ZM167.09 28.8926C168.229 28.8926 169.182 28.5736 169.947 27.9355C170.722 27.2884 171.141 26.4544 171.205 25.4336H172.777C172.732 26.3359 172.449 27.1608 171.93 27.9082C171.41 28.6465 170.717 29.2253 169.852 29.6445C168.995 30.0638 168.074 30.2734 167.09 30.2734C165.148 30.2734 163.608 29.599 162.469 28.25C161.339 26.901 160.773 25.0872 160.773 22.8086V22.3164C160.773 20.8581 161.029 19.5684 161.539 18.4473C162.049 17.3262 162.779 16.4603 163.727 15.8496C164.684 15.2389 165.8 14.9336 167.076 14.9336C168.699 14.9336 170.034 15.4167 171.082 16.3828C172.139 17.349 172.704 18.6204 172.777 20.1973H171.205C171.132 19.0397 170.713 18.1055 169.947 17.3945C169.191 16.6836 168.234 16.3281 167.076 16.3281C165.6 16.3281 164.451 16.8613 163.631 17.9277C162.82 18.9941 162.414 20.4889 162.414 22.4121V22.8906C162.414 24.7773 162.82 26.2493 163.631 27.3066C164.451 28.3639 165.604 28.8926 167.09 28.8926ZM179.572 22.5488L177.699 24.3535V30H176.059V9H177.699V22.4395L179.244 20.7715L184.904 15.207H186.969L180.693 21.4414L187.516 30H185.561L179.572 22.5488Z" fill="white"/>
</svg>
